<?xml version="1.0" encoding="UTF-8" standalone="no"?>
<!-- Created with Inkscape (http://www.inkscape.org/) -->

<svg
   xmlns:dc="http://purl.org/dc/elements/1.1/"
   xmlns:cc="http://creativecommons.org/ns#"
   xmlns:rdf="http://www.w3.org/1999/02/22-rdf-syntax-ns#"
   xmlns:svg="http://www.w3.org/2000/svg"
   xmlns="http://www.w3.org/2000/svg"
   xmlns:sodipodi="http://sodipodi.sourceforge.net/DTD/sodipodi-0.dtd"
   xmlns:inkscape="http://www.inkscape.org/namespaces/inkscape"
   height="297mm"
   width="210mm"
   viewBox="0 0 744.09448819 1052.3622047"
   id="svg4988"
   version="1.1"
   inkscape:version="0.91 r13725"
   sodipodi:docname="Tux v3.svg"
   inkscape:export-filename="/home/smith/Рабочий стол/1"
   inkscape:export-xdpi="125.3365"
   inkscape:export-ydpi="125.3365">
  <defs
     id="defs4994" />
  <sodipodi:namedview
     pagecolor="#ffffff"
     bordercolor="#666666"
     borderopacity="1"
     objecttolerance="10"
     gridtolerance="10"
     guidetolerance="10"
     inkscape:pageopacity="0"
     inkscape:pageshadow="2"
     inkscape:window-width="1867"
     inkscape:window-height="1056"
     id="namedview4992"
     showgrid="false"
     inkscape:zoom="0.51722353"
     inkscape:cx="320.72269"
     inkscape:cy="510.69456"
     inkscape:window-x="53"
     inkscape:window-y="24"
     inkscape:window-maximized="1"
     inkscape:current-layer="svg4988" />
  <metadata
     id="metadata4990">
    <rdf:RDF>
      <cc:Work
         rdf:about="">
        <dc:format>image/svg+xml</dc:format>
        <dc:type
           rdf:resource="http://purl.org/dc/dcmitype/StillImage" />
        <dc:title />
      </cc:Work>
    </rdf:RDF>
  </metadata>
  <path
     d="m 273.53564,162.99677 c -7.48645,14.79774 -12.41447,32.99116 -12.84351,55.30848 -1.81938,94.66234 4.12209,80.02226 0.45457,123.45922 -1.3461,15.9862 -10.82274,39.35916 -22.45933,62.76593 -13.34771,26.7397 -29.43078,53.41762 -39.35407,69.07116 -18.75945,29.58826 -40.82031,60.35454 -56.21684,91.62907 -8.80125,17.74654 -15.48429,35.65853 -18.22144,53.61381 -1.83016,12.00208 -2.0427,27.5208 -1.63271,42.06455 -10.85116,9.42698 -16.42473,25.30461 -27.574736,37.40908 -7.191905,7.78931 -21.09309,10.31919 -36.500048,13.30342 -13.218606,2.52988 -27.205023,7.67529 -32.094209,15.54973 -0.54592,0.87852 -1.039335,1.78943 -1.49211,2.72539 -11.132744,21.43437 2.492604,58.22202 -4.152662,85.43592 -2.814114,11.56995 -7.618427,22.45746 -7.704379,32.43534 -0.02877,5.14557 1.137154,10.6033 4.71944,16.80053 3.922498,6.82266 12.536384,11.68334 24.78866,15.91911 11.428001,3.95151 26.267105,7.41982 43.52221,11.48488 l 5.969877,1.39289 c 7.760477,1.84812 15.492557,3.69562 23.310217,5.25942 5.08842,1.05177 8.04531,1.56324 10.57424,2.01837 11.00112,1.96147 15.18004,2.72887 44.51694,14.1849 7.07862,2.75772 14.92434,5.71389 23.22499,8.24371 16.40242,5.08851 34.93709,8.78413 52.05086,5.68573 8.67071,-1.56313 16.85736,-4.86121 24.13449,-10.54624 7.5332,-5.88418 14.78228,-13.81557 19.92753,-21.86025 1.37559,-2.14544 2.6476,-4.36616 3.76102,-6.65147 0.97605,-1.92861 1.84239,-3.90466 2.56561,-5.9216 0.68977,-1.83845 1.26446,-3.7459 1.68343,-5.66056 6.9024,-3.44189 23.98273,-8.63536 64.65018,-9.0288 61.28907,-0.59722 102.11045,21.51965 102.11045,21.51965 l 0.0287,-0.45439 c 0.51139,2.89974 1.1368,5.59981 1.93337,8.18674 1.16557,3.78065 2.72888,7.24896 4.83237,10.6033 2.13225,3.32608 4.7759,6.48145 8.13055,9.58039 3.63838,3.35434 8.01617,6.45327 13.01972,9.09696 4.66226,2.44488 9.89273,4.49135 15.63497,5.99821 5.23047,1.36477 10.88748,2.27446 16.8854,2.55867 5.60054,0.28421 11.45608,0.0289 17.56835,-0.85274 10.31888,-1.47811 18.2786,-4.74728 25.12921,-8.983 6.68052,-4.1219 12.13863,-9.06834 17.71044,-14.12804 l 0.17082,-0.14208 0,0 c 3.66713,-3.32624 7.39113,-6.70875 11.51283,-9.80768 2.75729,-2.07528 5.28764,-4.00863 7.70403,-5.88418 3.58191,-2.75766 5.57212,-4.32095 7.59038,-5.91302 6.05511,-4.74723 12.30836,-9.69361 18.5627,-14.35588 6.48166,-4.8043 13.3607,-9.69361 20.83743,-14.46911 5.65698,-3.63856 12.02461,-7.76047 18.13657,-11.76841 6.31114,-4.15071 12.90571,-8.49976 19.13127,-12.7638 11.11944,-7.55253 26.46597,-16.9135 32.27941,-29.0726 1.94166,-3.76143 2.98422,-7.79316 2.70227,-12.12706 -0.90948,-13.90069 -17.36911,-26.43723 -31.92338,-38.88871 -7.07862,-6.08322 -14.2137,-12.10963 -17.93733,-18.27865 -3.01334,-4.97448 -6.65242,-12.47953 -7.67523,-17.93743 -2.87311,-15.13528 -2.81163,-26.44228 -9.97799,-36.44021 -6.57655,-9.1753 -12.32492,-11.81468 -22.46145,-12.95988 -1.51944,-0.17162 -2.9479,-0.38481 -4.33247,-0.60985 6.5852,-24.24342 8.05714,-39.63543 6.85241,-59.94398 -2.7523,-46.39339 -33.12493,-99.1802 -67.48625,-152.66782 -20.27777,-33.49404 -41.61541,-64.925 -54.96564,-87.00528 -7.29908,-12.26803 -11.48087,-20.34553 -15.29296,-31.031 -4.39326,-12.31549 -5.91522,-42.1984 -6.42517,-90.38176 1.81901,-73.82577 -21.03628,-107.9095 -48.69587,-129.17319 -27.65995,-21.2636 -68.25404,-20.922454 -82.89389,-19.64343 l 0,0 0,0 0,-3.6e-4 c -12.27387,1.07016 -63.90576,13.4555 -88.00356,62.04807 z"
     style="fill:#383838;fill-rule:evenodd"
     id="path4734"
     inkscape:connector-curvature="0" />
  <path
     d="m 89.563774,712.04636 c -14.544923,6.98827 -48.038097,6.84614 -56.163246,20.76652 -8.919932,15.31163 -3.152886,32.27177 -3.068013,51.81702 0.02877,13.83446 -0.198876,29.23242 -6.022025,45.62378 -4.773025,13.49429 -6.392085,18.26654 0.453855,30.14154 6.846299,11.90327 36.561186,17.61336 76.758965,27.21553 40.22619,9.57396 27.41397,2.49993 72.44159,20.08451 27.8966,10.9084 67.27046,24.28931 92.78126,4.375 9.40328,-7.35797 24.82858,-24.00469 25.7665,-40.22601 0.53981,-9.26127 -0.31288,-19.14739 -2.52821,-25.14152 -7.35805,-20.0007 -22.07344,-28.55115 -36.0498,-49.45965 -25.59639,-38.83454 -52.78306,-75.65151 -74.51558,-107.98024 -15.34043,-22.86859 -27.66966,-28.40849 -38.09573,-26.59037 -32.04458,5.65308 -21.70374,34.94189 -51.759924,49.37389 l 0,0 0,0 0,0 z"
     style="fill:#fcc624;fill-rule:evenodd"
     id="path4736"
     inkscape:connector-curvature="0" />
  <path
     d="m 497.15719,678.98349 c -14.11481,9.97167 -11.05759,39.85895 -11.88582,55.60224 -1.25726,24.0868 -1.42917,50.94495 -2.25704,61.6309 -1.37199,17.68612 -14.77222,57.63076 -13.14308,76.48867 1.6,18.82954 2.97128,29.85839 14.6859,40.65877 11.74304,10.80039 32.40134,18.85776 57.91645,15.17172 25.51549,-3.68615 35.1723,-19.54383 51.71643,-31.94382 16.51458,-12.40053 33.51578,-27.11536 55.34507,-41.11607 21.82888,-14.02908 56.97386,-37.00168 62.03098,-43.20165 5.05713,-6.22882 8.48586,-11.60007 4.82878,-19.77214 -3.62871,-8.17201 -16.37188,-20.80099 -30.28709,-32.2873 -36.28677,-30.0012 -20.62087,-57.88875 -35.77252,-72.63139 -4.62232,-4.98048 -8.05753,-7.72524 -13.4225,-8.81765 -28.96038,-5.89797 -36.91651,5.477 -53.92129,3.80575 -18.33544,-1.8016 -11.4424,2.2294 -49.08177,-2.79325 -12.95642,-1.47174 -27.80848,-6.60204 -36.7525,-0.79599 l 0,0 z"
     style="fill:#fcc624;fill-rule:evenodd"
     id="path4738"
     inkscape:connector-curvature="0" />
  <path
     d="m 260.53964,450.08166 c -12.93701,28.29033 -12.30262,18.67772 -20.99671,48.24825 -12.07389,10.95595 -25.31084,40.39195 -34.02542,65.72962 -11.12915,36.82484 -19.49058,74.68774 -9.09724,118.73129 4.12246,4.4775 7.46919,8.71164 11.2241,12.26808 5.96412,5.64881 12.38569,10.22828 20.23068,16.1912 27.76282,21.0998 47.21995,32.24098 51.04858,45.96259 5.09634,18.26537 -6.32735,30.34447 -20.57162,37.77151 10.41492,10.42038 43.66211,31.76857 104.28837,29.10062 53.39228,-2.34948 86.87394,-22.55643 115.45528,-57.42099 0.18269,-8.02272 1.06091,-21.44833 1.4583,-35.94012 0.37941,-13.83984 0.45924,-27.69968 2.57748,-38.44853 0.49844,-2.52972 1.45254,-4.9249 2.30667,-7.0316 3.48698,-8.60152 12.87192,-14.46116 21.85263,-14.8835 4.72159,-0.22215 9.67768,-0.56378 14.41618,0.41924 7.24441,-56.6101 1.50793,-95.69685 -27.10217,-155.65067 -2.21641,-4.20471 -12.81618,-22.03774 -19.14389,-27.07085 -4.94493,-24.19264 -5.59695,-23.00568 -15.48968,-45.15291 -15.00381,-33.58746 -20.44107,-72.41019 -25.01558,-95.22441 -3.1252,1.61932 -8.58008,3.89247 -16.90519,10.34217 -6.05115,4.71652 -17.24539,14.51809 -25.82548,20.45596 -5.60268,3.8787 -11.7344,7.23244 -17.76686,9.85851 -8.68148,3.78048 -17.15654,6.05489 -23.54359,6.22255 -22.89628,1.21074 -33.78771,-4.45996 -44.22709,-15.33898 -4.37852,-4.56323 -7.69539,-9.56257 -13.21896,-15.6625 -2.4473,-2.70237 -5.83358,-6.29264 -9.28604,-8.75977 -0.0939,2.99835 -9.70609,66.99292 -22.64275,95.28324 z M 432.76235,342.48094 c 0.0572,-0.057 0.0852,-0.14206 0.14205,-0.19899 -0.0568,0.0569 -0.0855,0.14202 -0.14205,0.19899 z m -69.46636,-61.36916 c -0.70991,-6.30765 -0.90914,-17.84243 3.46648,-32.36048 6.76178,-22.27488 31.1962,-37.1903 51.87967,-26.67856 20.68383,10.51238 24.50491,37.80472 19.54704,53.18625 -3.04716,9.4537 -10.27899,20.5129 -15.74034,27.44565 -4.23322,-1.73316 -9.46118,-3.63655 -15.96691,-5.88094 3.75023,-2.15929 7.10271,-5.56871 9.57482,-10.08625 6.84702,-12.4727 4.40368,-28.6958 -5.39842,-36.25298 -9.83016,-7.55779 -23.32604,-3.55147 -30.14501,8.92122 -4.77266,8.69409 -5.02872,19.23459 -1.42018,27.36053 -5.82457,-2.24438 -10.90976,-4.17654 -15.79715,-5.6538 l 0,0 0,0 0,-5.2e-4 z m -75.85844,-53.52726 c 19.37692,-6.7619 30.96855,9.46121 35.68512,32.67274 1.4209,7.1317 1.53418,14.2628 0.68186,20.79758 -0.53981,0.17018 -1.07925,0.39793 -1.64819,0.62509 -2.27323,0.88098 -4.71657,1.98907 -7.41487,3.38127 0.42579,-1.50605 0.73868,-3.12537 0.93719,-4.82977 1.53419,-12.98387 -4.60256,-26.42264 -13.72281,-29.97407 -9.12025,-3.55147 -17.75751,4.11958 -19.29169,17.10345 -1.47701,12.47269 4.11957,25.34328 12.61478,29.49105 -1.07997,0.73893 -2.18799,1.50607 -3.29565,2.30132 -1.42092,0.96608 -2.8411,2.01724 -4.23323,3.09656 -6.73409,-6.50662 -11.25071,-16.99019 -13.80804,-28.01375 -4.63133,-20.00172 0.36898,-42.07762 13.49516,-46.65147 l 0,0 0,0 0,0 z"
     style="fill:#f5f5f5;fill-rule:evenodd"
     id="path4740"
     inkscape:connector-curvature="0" />
  <path
     d="m 484.01519,769.22719 c 0.66207,13.77267 2.6983,28.74387 1.8931,41.78962 -1.81903,29.47236 -1.05157,68.66361 8.90697,81.17425 18.28222,22.96681 42.60337,22.18646 74.27282,10.98127 16.60924,-5.87671 27.92935,-12.90662 49.08573,-25.72827 1.02888,-0.62349 2.04811,-1.24291 3.05756,-1.85797 -9.56654,7.34771 -18.37103,14.49579 -27.04103,21.00604 -16.54444,12.39999 -26.20125,28.25772 -51.71674,31.94381 -25.51511,3.68599 -46.17341,-4.37137 -57.91609,-15.17171 -11.71498,-10.80028 -13.08626,-21.82924 -14.68626,-40.65872 -0.61389,-7.10603 0.90627,-17.20634 3.11297,-27.98157 3.64917,-17.81972 9.17527,-37.48561 10.03011,-48.50709 0.42904,-5.53501 0.68186,-15.40944 1.00086,-26.98966 z"
     style="fill:#e09d00;fill-rule:evenodd"
     id="path4742"
     inkscape:connector-curvature="0" />
  <path
     d="m 21.319798,839.29269 c 1.465137,6.23435 5.486533,17.91242 15.741058,23.696 14.388845,8.11522 60.311593,16.27307 107.371854,24.68881 47.06062,8.41575 63.73995,24.72151 97.69526,16.30576 65.66434,-16.27518 31.00632,-78.83688 35.14603,-77.32066 l 1.22132,0.44782 c 4.62881,5.73062 8.61892,11.7903 11.48913,19.59246 2.21569,5.99409 3.06838,15.88021 2.52821,25.14142 -0.93757,16.22143 -16.36322,32.86815 -25.7665,40.22601 -25.51044,19.91437 -64.8843,6.53351 -92.7809,-4.37505 -45.02798,-17.58442 -32.21576,-10.5105 -72.44159,-20.08451 -40.197776,-9.60206 -69.912666,-15.31205 -76.758966,-27.21542 -5.065046,-8.78561 -5.495883,-13.68408 -3.444906,-21.10264 z m 249.051802,79.06176 -0.24599,0.3566 -0.29309,0.0553 c 0.18018,-0.13577 0.35998,-0.27326 0.53908,-0.41197 z"
     style="fill:#e09d00;fill-rule:evenodd"
     id="path4744"
     inkscape:connector-curvature="0" />
  <path
     d="m 504.98097,676.43772 c -3.25466,80.20128 31.42742,95.80939 69.58432,60.90134 8.51461,-7.78947 17.21482,-24.29058 25.69026,-36.17816 1.42989,-2.00531 2.69649,-4.28725 3.81711,-6.70401 -3.7024,6.0958 -8.0363,12.37862 -13.24236,18.21927 -16.66961,18.7014 -44.90823,31.09956 -63.55471,22.41371 -16.16471,-7.52968 -22.17091,-39.15839 -21.52969,-58.72106 -0.25714,0.0195 -0.51211,0.0426 -0.76493,0.0689 z"
     style="fill:#e09d00;fill-rule:evenodd"
     id="path4746"
     inkscape:connector-curvature="0" />
  <path
     d="m 432.76235,342.48104 c 0.0572,-0.057 0.0852,-0.14206 0.14205,-0.19898 -0.0568,0.0569 -0.0855,0.14202 -0.14205,0.19898 z m -151.61368,4.08368 c 0.32763,0.34659 0.20535,0.96026 0.57002,1.32334 4.2868,4.26965 9.24504,8.45482 13.56781,13.35175 4.97009,5.63067 9.52518,11.92878 13.75553,15.78795 7.77846,7.09617 15.16816,10.88845 25.96357,12.22084 20.84927,2.57338 36.43748,-3.20795 54.01947,-14.8036 8.27296,-5.4581 19.72865,-15.52118 26.35234,-20.49611 11.02952,-8.30111 14.18494,-7.64731 17.45398,-11.8255 3.38305,-4.34913 5.03161,-15.71995 4.03686,-21.0928 -0.79587,-4.15061 -2.24554,-6.90765 -6.73733,-9.75058 -5.00355,-3.15526 -13.61672,-6.48112 -28.54106,-11.54114 l -0.0287,-0.0282 -0.0288,0 -0.0288,-0.0281 -0.0568,0 -0.0288,-0.0284 -0.0288,0 -0.0287,0 -0.0572,-0.0282 -0.0288,0 -0.0287,-0.0284 -0.0572,0 0,0 -0.0287,-0.028 -0.0288,0 -0.0288,0 -0.0568,-0.0284 -0.0288,0 -0.0288,-0.0282 -0.0568,0 -0.0287,-0.0284 -0.0287,0 -0.0288,-0.028 -0.0568,0 0,0 -0.0288,0 -0.0288,-0.0283 -0.0288,0 -0.0568,-0.0283 -0.0287,0 -0.0288,-0.028 -0.0288,0 -0.0568,0 -0.0288,-0.0282 -0.0288,0 -0.0572,-0.0283 0,0 -0.0288,0 -0.0287,-0.028 -0.0288,0 -0.0568,-0.0282 -0.0288,0 -0.0288,0 -0.0288,-0.0283 -0.0572,0 -0.0288,-0.0281 -0.0287,0 -0.0287,-0.0282 -0.0288,0 -0.0288,0 -0.0288,0 -0.0288,-0.0282 -0.0288,0 -0.0568,-0.0282 -0.0288,0 -0.0288,-0.0282 -0.0287,0 -0.0568,0 -0.0288,-0.0283 -0.0288,0 -0.0288,-0.0282 -0.0288,0 -0.0287,0 -0.0288,-0.0282 -0.0288,0 -0.0288,0 -0.0572,-0.0282 -0.0288,0 -0.0288,-0.0281 -0.0287,0 -0.14206,-0.0568 -0.36969,-0.14235 -0.0565,0 -0.25642,-0.085 -0.0849,-0.0283 -0.19924,-0.0853 -0.19923,-0.0569 -0.0568,-0.028 -0.28412,-0.0854 -0.0572,-0.028 -0.36934,-0.14216 -0.0849,-0.0282 -0.28446,-0.0851 -0.0288,-0.0282 -0.36934,-0.11343 -0.114,-0.0569 -0.28448,-0.0851 0,0 -0.36897,-0.14201 -0.36934,-0.14234 -0.0288,0 -0.25605,-0.0849 -0.11328,-0.0283 -0.17083,-0.0852 -0.19924,-0.0568 -0.0568,-0.0282 -0.25642,-0.085 -0.0568,-0.0284 -0.36934,-0.14205 -0.0849,-0.0282 -0.25605,-0.0852 -0.0288,0 -0.19887,-0.0851 -0.17048,-0.0569 -0.0849,-0.0284 -0.25606,-0.11311 0,0 -0.36933,-0.11404 -0.14242,-0.0571 -0.22728,-0.0851 -0.0288,0 -0.22728,-0.11386 -0.0849,-0.0282 -0.3697,-0.11418 -0.0568,-0.0282 -0.22765,-0.085 -0.0568,-0.0283 -0.19887,-0.0569 -0.17119,-0.0569 -0.0568,-0.0282 -0.25606,-0.11385 -0.0288,0 -0.19924,-0.0853 -0.14205,-0.0571 -0.11329,-0.028 -0.22729,-0.0852 -0.0288,0 -0.34129,-0.14202 -0.34092,-0.114 -0.0287,-0.0282 -0.22728,-0.0853 -0.0853,-0.028 -0.14207,-0.0568 -0.19887,-0.0571 -0.0288,-0.0284 -0.25607,-0.085 -0.0568,-0.0281 -0.1701,-0.0571 -0.17119,-0.0571 -0.0568,-0.028 -0.22728,-0.0852 -0.0568,-0.0282 -0.17046,-0.0571 -0.14207,-0.0568 -0.114,-0.0282 -0.22729,-0.11386 0,0 -0.22728,-0.0854 -0.11364,-0.0282 -0.31324,-0.14202 -0.0288,0 -0.22729,-0.0852 -0.0852,-0.028 -0.14205,-0.0569 -0.17047,-0.0572 -0.0288,-0.0283 -0.22729,-0.0848 -0.0849,-0.0283 -0.31323,-0.11386 -0.0572,-0.0283 -0.22692,-0.0853 -0.0288,0 -0.19887,-0.085 -0.11436,-0.0571 -0.0849,-0.0283 -0.22693,-0.0851 -0.0288,0 -0.0568,-0.0283 -0.0572,-0.0282 -0.0853,-0.028 -0.0568,-0.0281 -0.0568,0 0,-0.0284 -0.0853,0 -0.0572,-0.0281 -0.0849,-0.0281 -0.0572,-0.0282 -0.0288,-0.0284 -0.11401,-0.0282 -0.0572,-0.028 -0.0849,-0.0284 -0.0568,-0.0283 0,0 -0.0856,-0.0282 -0.0568,-0.028 -0.0568,-0.0283 -0.0852,-0.0282 -0.0288,0 -0.0288,-0.0282 -0.0849,0 -0.0572,-0.028 -0.0568,-0.0283 -0.0853,-0.0282 0,0 -0.0568,-0.028 -0.0852,-0.0282 -0.0572,-0.0283 -0.11364,-0.0282 -0.0288,-0.028 -0.0572,-0.0283 -0.0853,-0.0282 -0.0572,-0.0281 -0.0568,-0.028 -0.0288,0 -0.0568,0 -0.0572,-0.0284 -0.0568,-0.0282 -0.0853,-0.0282 -0.0287,-0.028 -0.0288,0 -0.0568,-0.0283 -0.0853,-0.0282 -0.0568,-0.0281 -0.0849,-0.028 0,0 -0.0576,-0.0283 -0.0568,-0.0282 -0.0849,0 -0.0572,-0.0281 -0.0568,-0.0282 0,0 -0.0852,-0.0282 -0.0568,-0.0282 -0.0572,-0.028 -0.0852,-0.0283 0,0 -0.0568,-0.0282 -0.0568,-0.028 -0.0853,-0.0284 -0.0572,-0.0282 -0.0568,0 0,0 -0.0852,-0.028 -0.0568,-0.0283 -0.0572,-0.028 -0.0572,-0.0282 -0.0288,0 -0.0568,-0.0283 -0.0568,-0.0282 -0.0572,-0.028 -0.0849,-0.0283 -0.0572,0 c -15.1516,-5.88429 -24.98716,-9.6938 -38.80275,-9.23911 -4.80431,0.14202 -9.69386,0.68239 -16.57325,3.41114 l -0.34128,0.14216 0,0 -0.3413,0.11342 0,0.0282 -0.28411,0.114 -0.0572,0 0,0.028 -0.0288,0 -0.31325,0.11419 0,0.028 -0.25569,0.085 -0.17047,0.0855 -0.19887,0.085 -0.0572,0.0282 -0.0288,0 -0.28375,0.114 -0.0572,0.0283 -0.0288,0.0282 0,0 -0.31251,0.14203 0,0 -0.0288,0 -0.28447,0.14215 -0.0568,0 -0.0288,0.0281 -0.19924,0.0853 -0.0568,0.0284 -0.11364,0.0567 -0.28411,0.14234 -0.0287,0 -0.0568,0.0281 -0.19924,0.0851 -0.11328,0.0571 -0.0568,0.0282 -0.19924,0.0851 -0.0568,0.0282 -0.114,0.0569 0,0 -0.19924,0.0852 -0.11364,0.0571 -0.0855,0.0569 -0.19852,0.085 -0.0288,0 -0.14207,0.0852 -0.19923,0.0851 -0.19924,0.1134 -0.19887,0.0851 0,0 -0.19923,0.11357 -0.19888,0.0848 -0.0288,0.0284 -0.14205,0.0569 -0.0288,0.0284 -0.19924,0.085 0,0 -0.19887,0.11414 -0.19924,0.085 -0.1701,0.11405 -0.0288,0 -0.19924,0.11385 -0.0287,0 -0.14205,0.0853 -0.0288,0 -0.22728,0.11386 -0.17012,0.114 -0.0288,0 -0.19888,0.11386 -0.19924,0.11403 -0.22729,0.11326 -0.19923,0.0852 0,0.0282 -0.22729,0.11386 0,0 -0.19887,0.0852 0,0.028 -0.22729,0.11401 -0.17011,0.0851 -0.0287,0.0285 -0.22729,0.1131 -0.19888,0.11403 0,0 -0.22728,0.11372 -0.22728,0.14217 0,0 c -0.42653,0.22743 -0.88146,0.4833 -1.33603,0.73946 l -0.2273,0.14189 -0.22728,0.11417 0,0 -0.14206,0.0851 -0.25605,0.17094 -0.14206,0.0851 -0.0288,0 -0.0287,0.028 -0.22728,0.11404 -0.14205,0.0853 -0.11365,0.085 -0.28448,0.1705 -0.14205,0.085 -0.2841,0.14217 -0.14242,0.0851 -0.42616,0.25619 -0.14205,0.085 -0.28411,0.17033 -0.14242,0.114 -0.31288,0.17035 -0.14205,0.085 -0.36934,0.22739 -0.0288,0.0282 -0.0287,0 -0.14205,0.0851 -0.31253,0.19895 -0.14205,0.0854 -0.28411,0.17018 0,0 -0.0287,0.0285 -0.0288,0 0,0.0279 -0.0288,0 -0.0288,0.0282 -0.0287,0 0,0.0285 -0.0288,0 -0.0288,0.028 -0.0572,0.028 -0.0288,0 -0.14206,0.11339 -0.0287,0 -0.0288,0.0279 0,0 -0.0288,0.0283 -0.0288,0 -0.0288,0 0,0.0284 -0.0287,0 -0.0288,0.0279 -0.0288,0 0,0.0285 -0.0288,0 -0.34093,0.22726 -0.0287,0 -0.0288,0.0282 -0.14206,0.0851 -0.31323,0.19895 -0.14206,0.0853 -0.0287,0.0282 -0.28412,0.17036 -0.17082,0.114 -0.14242,0.085 -0.17082,0.11401 -0.14205,0.085 -0.17046,0.11389 -0.31288,0.19909 -0.17047,0.11401 -0.31288,0.19912 -0.14206,0.11387 -0.17046,0.0851 -0.1701,0.11401 -0.14206,0.11357 -0.17046,0.085 -0.17046,0.1131 -0.16975,0.11401 -0.14206,0.114 -0.11436,0.0569 -0.19887,0.14202 -0.11401,0.0571 -0.11328,0.0852 -0.11401,0.0569 -0.0853,0.085 -0.11364,0.0569 -0.11436,0.0851 -0.11365,0.0571 -0.0853,0.0851 -0.22729,0.14221 -0.11328,0.0569 -0.0849,0.0851 -0.11365,0.0571 -0.114,0.0851 -0.0288,0 -0.0852,0.0569 -0.11401,0.0852 -0.0849,0.0569 -0.114,0.0851 -0.11401,0.085 -0.11328,0.0569 -0.114,0.0855 -0.114,0.0568 -0.11364,0.0849 -0.0856,0.0854 -0.0849,0.028 -0.0288,0.0282 -0.114,0.0852 -0.22729,0.14201 -0.114,0.0852 -0.114,0.0569 -0.11401,0.0851 -0.114,0.085 -0.11329,0.0569 -0.11364,0.0853 -0.19923,0.17021 -0.11401,0.0571 -0.11364,0.0851 -0.114,0.0852 -0.11437,0.0569 -0.0288,0.0282 -0.0852,0.0568 -0.114,0.0854 -0.114,0.085 -0.11401,0.0571 -0.11364,0.0851 -0.0572,0.0283 -0.0572,0.0568 -0.11328,0.0853 -0.14206,0.0851 -0.19887,0.14215 -0.0288,0 -0.0568,0.0569 -0.0568,0.0282 -0.114,0.0851 -0.11401,0.0853 -0.22728,0.14202 -0.0852,0.0852 -0.0288,0 -0.11328,0.085 -0.48336,0.34144 c -7.04984,4.91813 -14.27088,11.45591 -18.44943,18.1654 -2.47678,3.96986 -6.39713,12.16089 -2.74003,16.87052 0.0108,0.0121 9.34069,4.79219 18.70693,10.33094 15.14192,8.95385 32.43874,13.57856 47.88202,12.71839 12.28285,-0.68409 25.99306,-4.56368 35.89298,-9.32857 9.96358,-4.79598 22.21514,-12.35956 34.15669,-21.57385 1.84814,-1.36466 5.36822,-4.82136 7.56916,-5.86414 1.94057,-0.91937 8.19599,-0.38611 7.90866,1.73834 -0.22478,1.66355 -7.57132,4.63259 -10.21929,6.59942 -13.06289,9.70212 -27.60637,19.20484 -37.05891,23.56156 -9.76613,4.50113 -26.20272,9.69817 -37.31209,10.35377 -10.14879,0.59883 -18.76699,-0.52707 -27.58983,-3.51031 -8.52937,-2.88421 -13.58578,-5.38872 -22.66791,-10.63404 -2.89647,-1.67298 -5.6811,-3.06942 -9.60108,-5.51715 z"
     style="fill:#fcc624;fill-rule:evenodd"
     id="path4748"
     inkscape:connector-curvature="0" />
  <path
     d="m 428.82618,342.59415 c -0.19349,0 -7.85183,3.74376 -17.74061,10.83436 -8.74227,6.26858 -19.10217,15.95421 -29.42934,20.32089 -22.00834,9.30603 -35.52292,9.79645 -44.84024,7.86186 -9.31733,-1.93471 -11.64702,-7.86186 -14.26729,-15.43228 -0.13163,-0.38035 -0.33014,-0.76372 -0.58297,-1.14859 -2.86698,-0.58052 -5.69655,-1.35046 -8.54807,-2.31448 -8.52938,-2.88421 -13.58579,-5.38872 -22.66791,-10.63404 -2.89647,-1.67298 -5.6811,-3.06942 -9.60108,-5.51715 0.32763,0.34659 0.20535,0.96026 0.57002,1.32334 4.2868,4.26965 9.24504,8.45482 13.56781,13.35175 2.67888,3.03503 5.2373,6.26373 7.68927,9.20004 l 11.66464,11.14631 c 5.93211,4.21919 12.16668,6.65055 20.36519,7.66244 20.84927,2.57338 36.43748,-3.20795 54.01947,-14.8036 8.27296,-5.4581 19.72865,-15.52118 26.35234,-20.49611 7.93562,-5.97239 11.79482,-7.3095 14.55319,-9.14567 l -1.10442,-2.20907 z m -136.85333,5.29999 c 0.27368,-5.05109 2.71845,-19.44379 20.09332,-39.36707 17.16987,-19.68815 21.73934,-24.61597 22.9085,-25.82332 -0.83578,0.11203 -1.69242,0.25272 -2.57855,0.42894 l -5.99829,1.64161 c -0.79947,0.27573 -1.62662,0.58187 -2.48433,0.92223 l -0.34129,0.14217 0,0 -0.3413,0.11342 0,0.0282 -0.2841,0.114 -0.0572,0 0,0.028 -0.0288,0 -0.31324,0.11418 0,0.028 -0.2557,0.085 -0.17046,0.0854 -0.19887,0.0851 -0.0572,0.0282 -0.0288,0 -0.28374,0.11401 -0.0572,0.0283 -0.0288,0.0282 0,0 -0.31252,0.14202 0,0 -0.0288,0 -0.28446,0.14216 -0.0568,0 -0.0288,0.028 -0.19924,0.0852 -0.0568,0.0283 -0.11364,0.0567 -0.28412,0.14233 -0.0288,0 -0.0568,0.028 -0.19925,0.0851 -0.11328,0.0571 -0.0568,0.0282 -0.19924,0.0851 -0.0568,0.0283 -0.114,0.0569 0,0 -0.19923,0.0853 -0.11365,0.0571 -0.0855,0.0569 -0.19853,0.085 -0.0288,0 -0.14206,0.0853 -0.19924,0.0851 -0.19923,0.11339 -0.19888,0.0851 0,0 -0.19924,0.11356 -0.19887,0.0848 -0.0288,0.0284 -0.14205,0.0569 -0.0288,0.0283 -0.19923,0.085 0,0 -0.19888,0.11414 -0.19924,0.085 -0.1701,0.11404 -0.0288,0 -0.19923,0.11386 -0.0288,0 -0.14205,0.0853 -0.0287,0 -0.22729,0.11385 -0.1701,0.114 -0.0288,0 -0.19888,0.11386 -0.19924,0.11404 -0.22729,0.11325 -0.19923,0.0853 0,0.0281 -0.22728,0.11386 0,0 -0.19888,0.0853 0,0.0281 -0.22728,0.114 -0.17012,0.0851 -0.0288,0.0284 -0.22729,0.1131 -0.19887,0.11404 0,0 -0.22729,0.11371 -0.22728,0.14217 0,0 c -0.42653,0.22743 -0.88147,0.4833 -1.33604,0.73947 l -0.22728,0.14188 -0.22728,0.11417 0,0 -0.14207,0.0851 -0.25606,0.17093 -0.14205,0.0851 -0.0288,0 -0.0288,0.028 -0.2273,0.11404 -0.14205,0.0853 -0.11364,0.085 -0.28446,0.1705 -0.14206,0.085 -0.28411,0.14216 -0.14241,0.0851 -0.42617,0.2562 -0.14205,0.085 -0.28411,0.17033 -0.14241,0.114 -0.31288,0.17035 -0.14205,0.085 -0.36935,0.22739 -0.0288,0.0282 -0.0288,0 -0.14205,0.0851 -0.31253,0.19895 -0.14205,0.0854 -0.28411,0.17018 0,0 -0.0288,0.0285 -0.0288,0 0,0.0279 -0.0288,0 -0.0287,0.0282 -0.0288,0 0,0.0285 -0.0288,0 -0.0287,0.028 -0.0572,0.028 -0.0288,0 -0.14205,0.11339 -0.0287,0 -0.0288,0.0279 0,0 -0.0288,0.0283 -0.0288,0 -0.0288,0 0,0.0284 -0.0288,0 -0.0288,0.0279 -0.0288,0 0,0.0285 -0.0287,0 -0.34092,0.22725 -0.0288,0 -0.0288,0.0283 -0.14205,0.0851 -0.31324,0.19895 -0.14205,0.0853 -0.0288,0.0282 -0.28411,0.17036 -0.17082,0.114 -0.14242,0.0849 -0.17082,0.11401 -0.14205,0.0851 -0.17048,0.11389 -0.31288,0.1991 -0.17046,0.114 -0.31288,0.19912 -0.14205,0.11387 -0.17047,0.0851 -0.17011,0.114 -0.14205,0.11358 -0.17047,0.085 -0.17046,0.11309 -0.16974,0.11401 -0.14205,0.114 -0.11436,0.0569 -0.19889,0.14202 -0.11401,0.0571 -0.11328,0.0853 -0.114,0.0569 -0.0852,0.0851 -0.11364,0.0569 -0.11437,0.0851 -0.11364,0.0571 -0.0853,0.085 -0.22729,0.1422 -0.11328,0.0569 -0.0849,0.0851 -0.11365,0.0571 -0.114,0.0851 -0.0288,0 -0.0853,0.0569 -0.11401,0.0852 -0.0849,0.0569 -0.114,0.0851 -0.114,0.085 -0.11328,0.0569 -0.11401,0.0855 -0.114,0.0568 -0.11364,0.0849 -0.0856,0.0854 -0.0849,0.028 -0.0288,0.0282 -0.114,0.0852 -0.22729,0.14201 -0.114,0.0852 -0.114,0.0569 -0.11401,0.0851 -0.114,0.085 -0.11328,0.0569 -0.11364,0.0853 -0.19924,0.17021 -0.114,0.0571 -0.11366,0.0851 -0.114,0.0852 -0.11435,0.0569 -0.0288,0.0282 -0.0853,0.0568 -0.11401,0.0854 -0.114,0.085 -0.114,0.0571 -0.11364,0.0851 -0.0572,0.0283 -0.0572,0.0568 -0.11329,0.0853 -0.14206,0.0851 -0.19887,0.14216 -0.0288,0 -0.0568,0.0569 -0.0568,0.0282 -0.11401,0.0851 -0.114,0.0852 -0.22729,0.14202 -0.0853,0.0852 -0.0288,0 -0.11328,0.085 -0.48334,0.34143 c -7.04985,4.91814 -14.2709,11.45591 -18.44945,18.16541 -2.47678,3.96985 -6.39711,12.16088 -2.74002,16.87051 0.0108,0.0119 9.19828,4.71918 18.49151,10.20378 z"
     style="fill:#e09d00;fill-rule:evenodd"
     id="path4750"
     inkscape:connector-curvature="0" />
  <path
     d="m 347.29743,292.12221 c -0.73939,-0.76749 8.2726,-2.6156 11.8254,0.17028 3.58121,2.78592 3.35428,4.97456 2.27431,6.14024 -1.1368,1.19387 -11.62688,-5.31571 -14.09971,-6.3111 l 0,5.3e-4 z"
     style="fill:#2e3336;fill-rule:evenodd"
     id="path4752"
     inkscape:connector-curvature="0" />
  <path
     d="m 357.17686,804.46613 c 25.83518,-1.13614 53.30885,-7.5678 77.76629,-21.96562 16.14744,-9.50595 30.70963,-22.75589 44.13754,-38.7269 -0.40207,9.25184 -0.85881,17.35658 -0.98503,22.89033 -28.58134,34.86456 -62.063,55.07155 -115.45528,57.42103 -60.62626,2.66801 -93.87345,-18.68019 -104.28801,-29.10061 6.84954,-3.78195 12.38174,-7.69277 16.45061,-13.23231 -0.0673,-0.0485 33.75139,24.85232 82.37388,22.71408 z m 122.85145,-61.83857 c 0.43444,-0.5292 0.86707,-1.06167 1.29683,-1.59919 -0.42976,0.53752 -0.86239,1.06999 -1.29683,1.59919 z"
     style="fill:#d9dadb;fill-rule:evenodd"
     id="path4754"
     inkscape:connector-curvature="0" />
  <path
     d="m 371.44487,239.4389 c 0,0 15.97121,-9.1911 37.97741,-4.24207 17.52375,3.94109 27.4118,20.23897 30.71286,26.71499 0.0403,-14.65221 -5.98894,-31.95928 -21.49264,-39.83886 -16.62971,-8.45148 -35.68153,-0.46437 -46.02595,14.56711 l -1.17168,2.79883 z"
     style="fill:#d9dadb;fill-rule:evenodd"
     id="path4756"
     inkscape:connector-curvature="0" />
  <path
     d="m 272.8937,250.62002 c 3.74016,-4.42574 11.37944,-11.06708 23.631,-11.21352 13.72353,-0.16411 22.22449,11.00957 25.66293,16.70764 -5.21718,-20.95155 -16.5488,-34.88121 -34.74972,-28.52937 l 0,0 0,0 0,0 c -7.90578,2.75478 -12.86222,11.85959 -14.54349,23.03525 z"
     style="fill:#d9dadb;fill-rule:evenodd"
     id="path4758"
     inkscape:connector-curvature="0" />
  <path
     d="m 279.66663,377.25533 c 3.18561,0.71541 7.82198,3.34587 13.61348,11.01561 11.56395,15.31371 24.25209,25.16469 44.19472,26.44652 21.97383,1.41239 44.24217,-14.23186 55.50978,-23.68872 7.01676,-5.88928 19.6909,-16.53426 30.67007,-22.66957 4.97801,-2.7819 10.74398,-4.13943 13.32901,-4.64637 -1.09723,-5.90352 -2.08118,-11.31133 -3.02773,-16.03217 -3.12556,1.61934 -8.58044,3.8925 -16.90519,10.34217 -6.05115,4.71645 -17.24575,14.51806 -25.82584,20.45593 -5.60233,3.87869 -11.7344,7.23247 -17.76686,9.85852 -8.68148,3.78045 -17.15654,6.05493 -23.54359,6.22256 -22.89628,1.21067 -33.78771,-4.45996 -44.22709,-15.33903 -4.37852,-4.5632 -7.69539,-9.56252 -13.21896,-15.6624 -2.44694,-2.70241 -5.83358,-6.29265 -9.28604,-8.7599 -0.0323,1.07987 -1.30222,10.07155 -3.51576,22.45685 z"
     style="fill:#d9dadb;fill-rule:evenodd"
     id="path4760"
     inkscape:connector-curvature="0" />
  <path
     d="m 199.36745,509.86932 c -29.08337,31.59753 -38.82506,75.49007 -34.34945,112.28935 2.7537,22.72382 14.98727,41.51277 29.13769,57.95645 2.50733,2.9138 4.90177,5.82917 7.49938,8.60657 0.48873,0.52236 -11.76606,-8.63936 -13.91737,-10.50118 -47.7245,-41.29799 -37.17904,-123.29187 10.416,-169.16349 1.56296,-1.50606 3.40247,-1.56597 1.21375,0.8123 z"
     style="fill:#6e6f70;fill-rule:evenodd"
     id="path4762"
     inkscape:connector-curvature="0" />
  <path
     d="m 331.49237,292.06521 c -1.22239,-1.81916 -6.31153,-0.88135 -8.75631,0 -2.41635,0.90972 -4.29256,3.55354 -3.29709,5.34465 0.51139,0.90959 1.62013,1.36473 2.47282,1.19387 1.30762,-0.28428 2.70083,-1.73421 4.46302,-3.07017 1.87619,-1.44996 4.60508,-2.72888 5.11648,-3.46835 l 0,0 z"
     style="fill:#2e3336;fill-rule:evenodd"
     id="path4764"
     inkscape:connector-curvature="0" />
  <path
     d="m 513.99261,502.23378 c 29.32073,30.69808 39.6486,63.62117 38.71643,97.54729 -0.43229,15.74318 -7.02858,35.6598 -10.41094,48.03464 -6.75102,24.7015 5.71814,6.48134 8.72612,-1.72515 5.15672,-14.06936 8.70774,-36.45222 8.13448,-52.92838 -1.37489,-39.5294 -19.13996,-69.97819 -44.4587,-91.15789 -1.25836,-1.05231 -2.45197,-1.59736 -0.70739,0.22949 z"
     style="fill:#6e6f70;fill-rule:evenodd"
     id="path4766"
     inkscape:connector-curvature="0" />
  <path
     d="m 614.84684,674.86433 c 0.49883,-0.93645 1.50901,-4.69197 1.58528,-5.45463 1.90819,-19.01868 -35.08922,-23.29814 -63.88631,-22.3376 -13.06723,0.43577 -23.2509,1.97689 -29.33263,3.77243 -10.59544,3.12804 -15.81226,10.30372 -16.98609,19.28083 -2.37644,18.17347 3.01622,56.56492 21.04813,64.9644 18.64685,8.68574 46.88547,-3.71231 63.55477,-22.41366 11.28805,-12.66335 18.47599,-27.40704 24.01685,-37.81177 z"
     style="fill:#383838;fill-rule:evenodd"
     id="path4768"
     inkscape:connector-curvature="0" />
  <path
     d="m 513.57507,665.65427 c -4.6396,5.54912 24.92786,1.34768 44.93304,5.12025 11.15181,2.10313 20.29326,8.41538 27.36398,8.64458 20.70934,0.67138 23.65941,-11.1185 7.34186,-20.10982 -20.75357,-11.43562 -69.14556,-6.20555 -79.63888,6.34499 z"
     style="fill:#6e6f70;fill-rule:evenodd"
     id="path4770"
     inkscape:connector-curvature="0" />
  <path
     d="m 405.7918,149.74637 c 3.20395,10.0432 -3.59128,15.93649 4.8241,20.40066 5.80768,3.08067 11.99801,-1.79166 22.61612,0.0309 18.68356,3.20683 31.28504,13.90201 26.77418,-2.97641 -1.68954,-6.32142 -8.55275,-15.01525 -16.39918,-21.94132 -14.17846,-12.51459 -33.41549,-21.4014 -44.05806,-15.33936 -5.52789,3.14869 2.68465,8.67215 6.24284,19.82558 z"
     style="fill:#6e6f70;fill-rule:evenodd"
     id="path4772"
     inkscape:connector-curvature="0" />
  <path
     d="m 483.98893,368.04104 c -0.30497,-2.62574 -3.19748,-6.0736 -6.13063,-8.87523 -5.3006,-5.06206 -12.49252,-8.65643 -16.47075,-6.20468 -7.32964,4.51682 0.75235,25.37378 6.66432,27.4874 9.48708,3.39158 16.77464,-5.19376 15.93706,-12.40749 z"
     style="fill:#6e6f70;fill-rule:evenodd"
     id="path4774"
     inkscape:connector-curvature="0" />
  <path
     d="m 308.28033,274.49089 c -0.87031,-0.29702 -0.10465,-3.09592 -3.85273,-7.40275 -3.74807,-4.30695 -6.99231,-4.43023 -6.12632,-7.49792 0.86564,-3.06747 6.19213,0.009 9.22022,5.2376 3.02811,5.22896 1.6295,9.95991 0.75883,9.66307 z"
     style="fill:#6e6f70;fill-rule:evenodd"
     id="path4776"
     inkscape:connector-curvature="0" />
  <path
     d="m 410.93884,275.15121 c -1.07062,-0.41091 0.0144,-3.86153 -4.45151,-9.40299 -4.46662,-5.54148 -8.88829,-5.807 -7.66555,-9.58773 1.22275,-3.78066 8.09926,0.26152 11.6258,6.91761 3.52654,6.65617 1.56153,12.48384 0.49126,12.07311 z"
     style="fill:#6e6f70;fill-rule:evenodd"
     id="path4778"
     inkscape:connector-curvature="0" />
</svg>
