<?xml version="1.0" standalone="no"?>
<!DOCTYPE svg PUBLIC "-//W3C//DTD SVG 20010904//EN"
 "http://www.w3.org/TR/2001/REC-SVG-20010904/DTD/svg10.dtd">
<svg version="1.0" xmlns="http://www.w3.org/2000/svg"
 width="1280.000000pt" height="960.000000pt" viewBox="0 0 1280.000000 960.000000"
 preserveAspectRatio="xMidYMid meet">
<metadata>
Created by potrace 1.15, written by Peter Selinger 2001-2017
</metadata>
<g transform="translate(0.000000,960.000000) scale(0.100000,-0.100000)"
fill="#000000" stroke="none">
<path d="M11978 9593 c7 -3 16 -2 19 1 4 3 -2 6 -13 5 -11 0 -14 -3 -6 -6z"/>
<path d="M7739 8386 c-2 -2 -35 -6 -74 -9 -145 -12 -356 -61 -462 -108 -24
-11 -45 -19 -49 -19 -3 0 -35 -13 -71 -30 -35 -16 -68 -30 -73 -30 -5 0 -10
-4 -12 -8 -1 -5 -37 -28 -78 -52 -182 -105 -371 -271 -490 -429 -14 -19 -36
-47 -50 -63 l-25 -29 -62 78 c-111 140 -324 331 -454 408 -19 11 -59 34 -89
52 -30 18 -62 35 -70 39 -8 3 -49 21 -90 40 -119 53 -222 85 -389 119 -81 17
-311 30 -396 22 -486 -42 -945 -293 -1238 -676 -41 -53 -86 -117 -101 -142
-15 -24 -31 -51 -36 -59 -28 -46 -105 -225 -131 -307 -32 -97 -63 -235 -77
-333 -9 -70 -9 -413 0 -505 9 -93 43 -286 62 -357 9 -32 23 -84 31 -115 18
-65 53 -170 85 -253 12 -30 28 -73 36 -94 25 -68 164 -347 217 -436 101 -169
221 -352 243 -371 8 -6 14 -16 14 -21 0 -5 9 -22 21 -36 11 -15 40 -52 62 -83
77 -103 242 -302 299 -360 29 -30 59 -41 93 -35 41 8 59 28 85 97 68 185 240
327 433 359 100 17 264 7 317 -20 21 -11 44 -20 49 -20 23 0 130 -77 188 -135
74 -75 143 -206 183 -350 5 -16 43 -127 85 -245 42 -118 80 -228 85 -245 5
-16 27 -82 50 -145 22 -63 59 -169 81 -235 21 -66 43 -129 48 -140 5 -11 12
-29 14 -40 12 -48 127 -368 137 -379 5 -8 54 -40 107 -72 125 -75 139 -75 266
1 53 31 101 62 106 69 5 6 105 297 222 646 116 349 238 712 270 807 66 197 94
255 163 331 154 168 400 237 626 175 80 -23 136 -54 214 -120 80 -67 127 -130
157 -213 28 -78 66 -115 111 -106 42 8 47 13 138 116 176 199 454 592 561 793
5 9 13 25 19 35 36 63 99 188 127 252 18 41 40 89 48 105 8 17 30 75 50 130
20 55 40 110 45 123 6 13 10 34 10 47 0 14 4 25 8 25 7 0 26 63 38 127 1 6 7
27 13 45 15 47 48 245 62 367 13 118 7 482 -10 546 -5 22 -13 56 -16 75 -35
202 -153 479 -278 656 -259 367 -678 635 -1112 715 -110 20 -334 36 -346 25z"/>
<path d="M10334 6340 c-140 -20 -255 -125 -279 -253 -4 -20 -8 -37 -9 -37 0
-1 -30 -3 -66 -6 -83 -6 -123 -19 -182 -56 -96 -60 -126 -123 -162 -338 -3
-19 -8 -44 -10 -55 -2 -11 -11 -72 -20 -135 -10 -63 -21 -122 -25 -130 -5 -8
-27 -18 -51 -22 -137 -23 -244 -141 -271 -298 -5 -30 -14 -89 -19 -130 -5 -41
-12 -86 -15 -100 -2 -14 -7 -36 -10 -50 -3 -14 -7 -45 -10 -70 -2 -25 -8 -67
-14 -95 -5 -27 -12 -70 -16 -95 -3 -25 -11 -72 -16 -105 -5 -33 -14 -89 -20
-125 -5 -36 -12 -76 -14 -90 -3 -14 -14 -86 -26 -160 -11 -74 -21 -144 -24
-155 -2 -11 -4 -27 -4 -37 -1 -9 -56 -69 -123 -135 -67 -65 -190 -184 -273
-265 -310 -303 -381 -371 -425 -407 -25 -20 -50 -41 -57 -48 -7 -6 -45 -24
-85 -40 -64 -24 -86 -28 -175 -28 -64 0 -107 5 -114 12 -9 9 -7 28 9 80 12 37
26 86 31 108 6 22 17 63 25 90 8 28 28 100 45 160 17 61 44 157 61 215 16 58
36 130 44 160 8 30 31 111 51 180 60 204 55 322 -18 436 -42 66 -96 105 -202
146 -47 18 -80 22 -150 22 -83 0 -96 -3 -165 -36 -97 -47 -169 -118 -214 -212
-19 -39 -37 -87 -41 -106 -4 -19 -14 -48 -21 -65 -7 -16 -22 -59 -34 -95 -32
-101 -106 -326 -138 -420 -43 -124 -78 -232 -218 -655 -70 -209 -130 -389
-134 -400 -5 -11 -31 -90 -59 -175 -28 -85 -64 -196 -80 -246 -28 -85 -59
-212 -77 -309 -4 -22 -8 -47 -10 -55 -38 -197 -38 -559 0 -870 20 -166 55
-409 76 -535 25 -146 25 -147 34 -215 4 -30 10 -63 12 -72 5 -17 54 -18 844
-18 755 0 838 2 844 16 3 9 6 156 6 327 0 397 12 485 89 642 l50 103 298 294
c371 365 648 636 868 849 93 90 251 243 350 340 99 97 256 250 349 340 186
181 251 259 301 364 43 90 91 238 110 340 9 44 20 96 25 115 8 31 33 187 46
290 2 19 14 91 25 160 12 69 23 143 24 165 2 22 13 108 24 190 29 203 29 208
41 308 5 48 15 126 21 175 6 48 12 101 14 117 5 41 42 325 50 385 5 33 10 79
35 295 5 50 12 103 14 119 5 43 -17 145 -42 193 -25 48 -103 111 -175 142 -56
24 -142 28 -212 9 -37 -10 -50 -10 -67 1 -57 36 -89 49 -137 60 -28 6 -53 10
-54 10 -1 -1 -25 -5 -53 -9z"/>
<path d="M2239 6286 c-20 -8 -55 -26 -77 -41 -37 -24 -45 -26 -73 -16 -55 19
-174 14 -232 -11 -105 -43 -192 -160 -204 -272 -3 -28 0 -85 6 -126 7 -41 14
-97 17 -125 2 -27 11 -95 19 -150 12 -89 26 -192 30 -220 0 -5 4 -32 8 -60 4
-27 15 -99 23 -160 8 -60 17 -123 20 -140 2 -16 9 -68 14 -115 9 -78 25 -187
36 -250 3 -14 9 -63 15 -110 5 -47 14 -113 20 -148 5 -34 11 -74 13 -90 4 -27
39 -247 51 -312 3 -19 10 -60 15 -90 57 -341 111 -521 205 -686 43 -75 117
-153 424 -444 102 -96 199 -188 216 -205 66 -64 422 -403 451 -431 81 -75 361
-340 464 -439 63 -60 180 -173 260 -250 295 -283 346 -340 390 -428 36 -72 52
-120 76 -224 4 -15 10 -188 14 -383 4 -195 8 -356 9 -357 0 -2 381 -3 846 -3
l844 0 5 33 c3 17 10 64 17 102 6 39 13 84 14 100 2 17 12 88 24 160 11 72 23
150 25 175 3 25 11 83 17 130 22 176 31 312 34 540 3 252 -4 334 -51 590 -7
34 -74 268 -86 300 -11 28 -188 539 -223 645 -13 39 -65 189 -115 335 -50 146
-98 283 -105 305 -23 68 -151 437 -174 500 -12 33 -37 105 -55 160 -19 55 -46
125 -60 156 -53 110 -193 218 -306 234 -25 3 -53 7 -64 9 -35 5 -157 -24 -212
-50 -111 -52 -194 -173 -207 -300 -6 -61 13 -166 49 -274 9 -25 22 -67 29 -95
15 -57 105 -370 160 -555 20 -69 43 -147 50 -175 8 -27 21 -72 29 -100 8 -27
13 -52 10 -55 -3 -3 -53 -7 -111 -8 -90 -3 -114 -1 -167 19 -115 42 -110 37
-501 410 -487 464 -485 461 -489 494 -2 17 -13 84 -25 150 -11 66 -23 138 -26
160 -4 22 -12 72 -20 110 -15 81 -26 140 -30 175 -2 14 -9 54 -15 90 -6 36
-15 94 -21 130 -11 73 -12 79 -40 238 -11 63 -21 126 -23 140 -17 149 -133
271 -282 298 -41 8 -51 19 -57 72 -4 26 -9 65 -12 87 -3 22 -12 74 -20 115 -7
41 -17 95 -21 120 -4 25 -8 47 -9 50 -1 3 -5 21 -9 40 -32 137 -158 235 -317
247 l-67 6 -12 41 c-46 153 -156 238 -315 243 -50 2 -94 -3 -116 -11z"/>
</g>
</svg>
