<?xml version="1.0"?>
<svg xmlns:rdf="http://www.w3.org/1999/02/22-rdf-syntax-ns#" xmlns="http://www.w3.org/2000/svg" xmlns:cc="http://web.resource.org/cc/" xmlns:dc="http://purl.org/dc/elements/1.1/" xmlns:sodipodi="http://inkscape.sourceforge.net/DTD/sodipodi-0.dtd" xmlns:svg="http://www.w3.org/2000/svg" id="Layer_1" style="enable-background:new 0 0 134.544 127.644" space="preserve" sodipodi:version="0.32" viewBox="0 0 134.544 127.644" version="1.1" sodipodi:docname="utensili.svg" sodipodi:docbase="F:\openclip\svg da inviare">
  <defs id="defs90">
    <linearGradient id="XMLID_7_" y2="63.737" gradientUnits="userSpaceOnUse" y1="63.737" x2="133.89" x1="7.0522">
      <stop id="stop6" stop-color="#EAEAEA" offset="0"/>
      <stop id="stop8" stop-color="#E1E1E1" offset=".1981"/>
      <stop id="stop10" stop-color="#C9C8C8" offset=".5226"/>
      <stop id="stop12" stop-color="#A1A0A0" offset=".9311"/>
      <stop id="stop14" stop-color="#9A9999" offset="1"/>
    </linearGradient>
    <linearGradient id="XMLID_8_" y2="455.83" gradientUnits="userSpaceOnUse" y1="455.83" gradientTransform="matrix(-211.4 211.92 211.92 211.4 -1.462e5 -46500)" x2="-233.92" x1="-235.55">
      <stop id="stop19" stop-color="#fff" offset="0"/>
      <stop id="stop21" offset="1"/>
    </linearGradient>
    <linearGradient id="XMLID_10_" y2="455.6" gradientUnits="userSpaceOnUse" y1="455.6" gradientTransform="matrix(-211.4 211.92 211.92 211.4 -1.462e5 -46500)" x2="-233.78" x1="-235.61">
      <stop id="stop40" stop-color="#C6C6C6" offset="0"/>
      <stop id="stop42" offset="1"/>
    </linearGradient>
    <linearGradient id="XMLID_11_" y2="455.82" gradientUnits="userSpaceOnUse" y1="455.82" gradientTransform="matrix(-211.4 211.92 211.92 211.4 -1.462e5 -46500)" x2="-233.93" x1="-235.54">
      <stop id="stop81" stop-color="#C6C6C6" offset="0"/>
      <stop id="stop83" offset="1"/>
    </linearGradient>
  </defs>
  <sodipodi:namedview id="base" bordercolor="#666666" borderopacity="1.0" pagecolor="#ffffff"/>
  <path id="path16" fill="url(#XMLID_7_)" d="m109.08 81.232c-9.452-9.441-21.299-15.809-31.939-23.731-5.87-4.37-15.309-10.283-16.672-18.151-0.848-4.896 1.591-9.764 0.886-14.939-0.718-5.291-3.022-10.31-6.55-14.316-7.609-8.64-20.183-11.606-30.849-7.224l11.407 11.407c5.395 5.396 4.612 9.253-0.65 14.5-4.896 4.881-8.723 4.604-13.444-0.112-3.937-3.932-7.871-7.863-11.808-11.795-4.668 10.252-2.406 22.596 5.546 30.545 3.756 3.754 8.593 6.372 13.8 7.438 2.498 0.511 5.071 0.67 7.615 0.471 2.709-0.213 6.506-2.252 8.979-1.574 8.634 2.359 14.464 10.677 19.334 17.692 7.66 11.027 12.911 23.254 22.639 32.767 8.008 7.83 16.846 15.99 27.106 20.8 7.81 3.66 13.9 0.88 18.28-6.73 2.51-4.35 0.41-8.42-2.1-12.33-5.88-9.16-13.93-17.063-21.58-24.718m-3.15 22.168c-4.84 0-4.83-7.514 0-7.514 4.84 0.034 4.86 7.514 0 7.514"/>
  <path id="path23" fill="url(#XMLID_8_)" d="m72.698 52.866c-0.396 0.395-0.793 0.792-1.188 1.188 3.334 2.845 5.444 2.622 9.313 5.351-0.281 0.296-0.563 0.594-0.845 0.889 14.662 9.591 27.492 19.62 39.222 32.692 4.78 5.243 10.2 10.934 13.05 17.544 2.12 4.92-0.38 8.21-3.89 11.8-8.46 8.64-19.68-1.03-27.11-6.9-14.178-11.2-26.268-25.019-34.527-41.176-0.34 0.357-0.681 0.717-1.021 1.074-2.014-4.167-2.271-7.269-4.97-10.499-2.109 2.102 2.567 6.314 3.905 8.963 2.299 4.554 5.041 8.8 7.849 13.055 6.597 9.993 14.207 18.423 23.302 26.213 6.212 5.32 13.092 10.9 20.862 13.77 6.67 2.46 11.46-0.96 15.52-6.17 7.61-9.77-4.98-21.306-11.19-28.184-6.52-7.217-13.28-14.381-20.97-20.365-8.781-6.827-18.931-11.963-27.312-19.245m-38.5-52.866c-1.117 0-12.8 1.62-10.827 3.456 0.072 0.804 2.794 2.797 3.337 3.34 3.387 3.393 7.798 6.723 10.604 10.615 4.395 4.396-2.842 12.46-7.247 14.238-5.052 2.038-10.382-5.742-13.376-8.739-0.644-0.644-7.123-8.213-7.986-6.39-4.167 9.165-3.038 20.09 2.911 28.199 5.264 7.177 13.789 11.521 22.693 11.521 4.303 0 8.532-2.432 12.553-1.151 3.928 1.25 6.672 4.059 9.363 7.074 3.517-3.518-8.538-8.648-11.637-9.495-1.723-0.442-5.826 1.604-7.795 1.792-3.89 0.368-7.853-0.134-11.523-1.472-13.913-5.069-20.892-20.87-15.442-34.587 3.97 3.973 7.942 7.944 11.914 11.916 5.405 5.404 9.86 2.75 14.476-1.867 2.335-2.335 4.793-4.618 4.255-8.286-1.567-2.223-3.313-4.088-5.228-6.003-3.593-3.591-7.186-7.184-10.779-10.777 0.957 0.367 1.845 0.86 2.663 1.481-0.533-0.533-1.064-1.066-1.598-1.598 13.529-4.813 28.722 2.306 33.642 15.822 2.453 6.74 0.117 11.735 0.143 18.328 0.494 3.318 5.677 15.986 9.543 12.119-3.694-3.248-6.907-6.004-7.691-11.013-0.43-2.755 0.931-5.359 1.173-8.153 0.322-3.745-0.152-7.563-1.342-11.125-3.81-11.421-14.787-19.245-26.799-19.245"/>
  <path id="path25" fill="#e5e5e5" d="m11.881 21.244c-0.223-0.881-0.782-1.391-1.677-1.53-2.405 6.787-1.443 14.537 2.289 20.661-2.992-6.04-3.265-12.958-0.612-19.131m48.25 6.359c0.008-7.884-3.868-15.379-10.194-20.056-2.91-2.151-6.272-3.674-9.806-4.447-1.624-0.356-13.428-1.411-13.405 0.843 0.036 3.46 8.174 2.006 9.697 2.122 4.861 0.367 9.566 2.182 13.398 5.194 8.738 6.87 11.665 19.119 6.707 29.131 2.335-3.845 3.618-8.284 3.603-12.787"/>
  <path id="path27" fill="#e5e5e5" d="m38.564 31.626c1.519-1.519 3.918-3.793 4.301-6.057 0.645-3.792-5.041 1.243-5.321 1.585-1.737 2.13-3.398 4.283-5.642 5.915-0.506 0.369-3.112 1.376-3.309 2.022-0.244 0.804 2.544 0.734 2.758 0.709 2.809-0.337 5.281-2.24 7.213-4.174"/>
  <path id="path44" fill="url(#XMLID_10_)" d="m24.464 3.383c5.396 5.394 11.601 10.534 16.007 16.78-0.481-3.237-3.596-5.551-5.765-7.721-2.953-2.952-6.207-7.609-10.242-9.059"/>
  <path id="path46" fill="#b2b2b2" d="m42.396 24.593c0.099 0.524 0.195 1.046 0.293 1.57 0.357-0.72 0.258-1.242-0.293-1.57"/>
  <path id="path48" fill="#e5e5e5" d="m26.256 35.833c-1.023 1.025-17.446-15.347-16.398-16.399 0.362-0.363 16.752 16.046 16.398 16.399"/>
  <path id="path50" fill="#e5e5e5" d="m131.96 114.9c3.62-3.64-34.908-37.813-38.923-41.091-9.73-7.946-20.975-13.859-29.757-23.014-1.597-1.665-3.312-3.513-4.231-5.664-0.023-0.059-0.444-1.816-0.221-1.7 0.173 0.09-0.377 0.693-0.418 0.734-0.255 0.259 8.754 8.281 9.283 8.685 10.813 8.242 22.997 14.23 33.537 22.948 8.87 7.343 17.26 15.537 24.24 24.722 1.53 2.02 9.45 11.42 6.49 14.38"/>
  <path id="path52" fill="#9a9a9a" d="m99.574 88.352c-1.573 0-3.071 0.258-4.547 0.798 4.688 0 8.163-0.436 12.243 2.703 2.82 2.172 4.73 5.209 6.45 8.277 0.43 0.79 2.7 6.7 3.82 6.7 2.61 0-3.36-10.186-3.79-10.702-3.57-4.272-8.39-7.776-14.176-7.776"/>
  <path id="path54" fill="#e5e5e5" d="m104.4 107.66c2.23 1.54 4.88 2.21 7.55 2.33 0.59 0.02 5.01-0.58 5.31 0.13 1.96 4.67-11.76 1.4-12.76 0.82-6.157-3.51-11.054-10.34-11.105-17.59-0.03-3.91 1.366-6.361 1.87-0.955 0.6 6.462 3.805 11.565 9.135 15.265"/>
  <path id="path56" fill="#d82a2a" d="m56.106 65.645c8.814 8.784-12.75 27.312-17.566 32.206-7.438 7.559-15.314 15.929-24.656 21.179-3.08 1.74-7.064 3.34-10.242 0.96-10.102-7.56 8.551-24.703 13.17-29.574 8.061-8.503 16.708-17.64 26.902-23.634 3.507-2.063 8.913-4.63 12.392-1.137"/>
  <path id="path58" fill="#b20d0d" d="m56.106 65.645c-0.554-0.394-1.109-0.787-1.663-1.181 6.218 9.163-13.687 26.113-18.559 31.057-7.218 7.329-14.752 15.169-23.603 20.559-2.924 1.78-7.023 3.94-10.417 2.1 7.942 11.46 28.348-12.07 32.98-16.63 5.05-4.977 30.806-26.395 21.262-35.905"/>
  <path id="path60" fill="#ef5656" d="m50.061 68.252c1.19 1.189-19.442 19.272-20.657 20.475-6.626 6.564-13.116 13.273-19.315 20.243-0.539 0.6-3.332 4.71-4.512 4.13-5.282-2.56 12.201-19.62 13.334-20.8 2.264-2.36 25.946-29.257 31.15-24.048"/>
  <path id="path62" fill="#970f00" d="m21.607 84.615c-4.188 4.188-33.355 31.575-16.307 36.925 6.423 2.02 14.411-5.49 18.82-9.24 8.531-7.25 16.578-15.298 23.931-23.741 4.321-4.96 15.407-16.414 8.495-23.351-9.243-9.242-29.807 14.276-34.939 19.407m-18.534 34.065c-5.303-5.25 2.725-14.55 5.958-18.57 7.805-9.691 16.899-18.767 26.493-26.684 4.077-3.363 17.131-14.582 21.506-5.543 1.644 3.397-0.833 7.569-2.603 10.368-6.237 9.867-15.167 18.312-23.559 26.299-4.577 4.36-20.057 21.9-27.795 14.13"/>
  <path id="path64" fill="#c6c6c6" d="m112.7 9.215c5.44 5.441-1.74 9.104-5.59 12.961-3.62 3.63-8.277 4.547-12.034 8.308-4.229 4.232-8.46 8.463-12.689 12.694-6.863 6.863-13.729 13.727-20.594 20.589-1.478 1.478-2.954 2.954-4.431 4.43-0.674 0.675-1.538 0.741-2.424 0.407-3.403-1.283-0.995-4.162 0.5-5.655 9.582-9.577 19.165-19.154 28.745-28.734 2.343-2.342 4.685-4.684 7.026-7.025 1.445-1.444 3.574-2.957 4.414-4.863 0.812-1.843 0.643-4.465 2.143-5.967 4.304-4.302 8.814-13.145 14.934-7.145"/>
  <path id="path66" fill="#fff" d="m94.426 26.611c0.503 0.503-38.888 39.939-39.413 39.414-0.238-0.238 38.481-40.256 39.413-39.414"/>
  <path id="path68" fill="#9a9a9a" d="m98.729 26.611c-6.407 1.639-42.162 42.753-42.899 42.022 5.496-1.883 42.011-42.91 42.899-42.022"/>
  <path id="path70" fill="#e5e5e5" d="m112.61 13.094c0 4.24-13.416 13.159-13.416 5.804 0-0.594 5.556-1.447 6.936-2.331 0.5-0.321 6.48-4.21 6.48-3.473"/>
  <path id="path72" fill="#9a9a9a" d="m108.61 7.109c-1.54 0-10.286 9.531-10.174 9.645 1.015 1.012 9.114-9.645 10.174-9.645"/>
  <path id="path74" fill="#ddd" d="m108.06 7.95c0.31-0.316 3.72 4.755 4.41 4.755 0.12-2.107-2.15-4.748-4.41-4.755"/>
  <path id="path76" fill="#c4c4c4" d="m108.06 7.95c-0.26 0-0.55 0.304 0 0"/>
  <path id="path78" fill="#9a9a9a" d="m73.073 59.401c-2.022 2.023-4.045 4.047-6.067 6.071-3.913 3.916-2.947 3.583-0.285 8.781 3.62-3.813 7.24-7.624 10.86-11.438-1.519-1.117-3.024-2.252-4.508-3.414m2.281-2.284c-0.203 0.202-0.407 0.407-0.609 0.609 1.603 1.018 3.226 2 4.867 2.954 0.121-0.128 0.243-0.258 0.365-0.386-1.565-1.024-3.115-2.071-4.623-3.177"/>
  <path id="path85" fill="url(#XMLID_11_)" d="m63.712 68.77c-1.454 1.672 1.062 4.641 1.989 6.558 2.214-1.388-0.989-5.03-1.989-6.558m12.561-12.574c-0.308 0.307-0.612 0.614-0.919 0.921 1.721 1.264 3.743 3.759 5.468 2.288-1.516-1.07-3.033-2.14-4.549-3.209"/>
  <path id="path87" fill="#b2b2b2" d="m74.745 57.726c-0.633 0.362-1.153 1.155-1.672 1.676 2.27 1.775 4.613 5.014 6.539 1.278-1.642-0.954-3.265-1.937-4.867-2.954"/>
  <metadata>
    <rdf:RDF>
      <cc:Work>
        <dc:format>image/svg+xml</dc:format>
        <dc:type rdf:resource="http://purl.org/dc/dcmitype/StillImage"/>
        <cc:license rdf:resource="http://creativecommons.org/licenses/publicdomain/"/>
        <dc:publisher>
          <cc:Agent rdf:about="http://openclipart.org/">
            <dc:title>Openclipart</dc:title>
          </cc:Agent>
        </dc:publisher>
        <dc:title>Architetto -- utensili chiave e cacci</dc:title>
        <dc:date>2010-03-28T12:25:31</dc:date>
        <dc:description>Drawing by Francesco 'Architetto' Rollandin. From OCAL 0.18 release.</dc:description>
        <dc:source>http://openclipart.org/detail/34951/architetto----utensili-chiave-e-cacci-by-anonymous</dc:source>
        <dc:creator>
          <cc:Agent>
            <dc:title>Anonymous</dc:title>
          </cc:Agent>
        </dc:creator>
        <dc:subject>
          <rdf:Bag>
            <rdf:li>clip art</rdf:li>
            <rdf:li>clipart</rdf:li>
            <rdf:li>icon</rdf:li>
            <rdf:li>screwdiver</rdf:li>
            <rdf:li>settings</rdf:li>
            <rdf:li>spanner</rdf:li>
            <rdf:li>tool</rdf:li>
            <rdf:li>wrench</rdf:li>
          </rdf:Bag>
        </dc:subject>
      </cc:Work>
      <cc:License rdf:about="http://creativecommons.org/licenses/publicdomain/">
        <cc:permits rdf:resource="http://creativecommons.org/ns#Reproduction"/>
        <cc:permits rdf:resource="http://creativecommons.org/ns#Distribution"/>
        <cc:permits rdf:resource="http://creativecommons.org/ns#DerivativeWorks"/>
      </cc:License>
    </rdf:RDF>
  </metadata>
</svg>
